Coordinates
version=1
nRows=16
nColumns=22
inDegrees=yes

Units are S.I. units (second, meters, Newtons, ...)
If the header above contains a line with 'inDegrees', this indicates whether rotational values are in degrees (yes) or radians (no).

endheader
time	pelvis_tilt	pelvis_list	pelvis_rotation	pelvis_tx	pelvis_ty	pelvis_tz	hip_flexion_r	hip_adduction_r	hip_rotation_r	knee_angle_r	ankle_angle_r	subtalar_angle_r	hip_flexion_l	hip_adduction_l	hip_rotation_l	knee_angle_l	ankle_angle_l	subtalar_angle_l	lumbar_extension	lumbar_bending	lumbar_rotation
      1.46000000	      9.85930045	      3.37150246	     68.62109756	      1.15062450	      0.93443433	      0.61620852	     -7.38770252	      5.89808511	    -14.09399205	    -13.97445585	     12.59232042	      1.89089891	     19.90076942	     -6.22627067	      0.71924166	    -56.42669179	     20.97807758	    -22.71756049	    -14.68417521	      7.70066436	     -4.72240588
      1.47000000	      9.78325812	      3.51872612	     68.90843799	      1.15528731	      0.93386015	      0.60862487	     -8.47348834	      6.00662762	    -14.46512094	    -13.29094845	     12.90627822	      1.82551078	     20.56749947	     -6.16566534	     -0.86909160	    -54.15677768	     21.04940750	    -22.52643724	    -14.89190299	      7.55737107	     -4.26268008
      1.48000000	      9.73014679	      3.64996992	     69.18858080	      1.15985125	      0.93301252	      0.60091271	     -9.53792163	      6.13810709	    -14.82226545	    -12.65152663	     13.23619805	      1.75893752	     21.14287649	     -6.09327571	     -2.44123218	    -51.72234318	     20.92957567	    -22.05021439	    -15.08668171	      7.45593658	     -3.81352060
      1.49000000	      9.70562384	      3.74025173	     69.47841958	      1.16429288	      0.93186760	      0.59308572	    -10.55183233	      6.30864270	    -15.17530460	    -12.06202889	     13.50685859	      1.68149553	     21.67130047	     -6.02763564	     -3.97659359	    -49.16223104	     20.62365853	    -21.12450232	    -15.24497752	      7.41808508	     -3.44441101
      1.50000000	      9.69188024	      3.82044375	     69.75533987	      1.16862406	      0.93050411	      0.58514148	    -11.53623085	      6.48304530	    -15.50024339	    -11.53036120	     13.82955509	      1.64911835	     22.11542784	     -5.93945665	     -5.48622038	    -46.48043679	     20.14351335	    -20.06039412	    -15.39378286	      7.40504208	     -3.08838197
      1.51000000	      9.69543720	      3.87508071	     70.02829721	      1.17283161	      0.92891649	      0.57707721	    -12.46834379	      6.67068494	    -15.81385864	    -11.07387282	     14.17334501	      1.65859108	     22.49976636	     -5.84754649	     -6.96619948	    -43.71117837	     19.48975852	    -18.80686505	    -15.51357577	      7.43286695	     -2.76285425
      1.52000000	      9.70662473	      3.91490592	     70.29889470	      1.17691048	      0.92714797	      0.56889059	    -13.36374320	      6.86048816	    -16.10365753	    -10.67447285	     14.53274428	      1.71344768	     22.81278069	     -5.73666296	     -8.41664158	    -40.86817359	     18.67480408	    -17.49872626	    -15.61159609	      7.48588892	     -2.46807907
      1.53000000	      9.72042410	      3.94118003	     70.56462916	      1.18085697	      0.92521897	      0.56058272	    -14.22279680	      7.04559328	    -16.36572793	    -10.32974435	     14.91373407	      1.80886311	     23.05735178	     -5.60459020	     -9.85681725	    -37.97851542	     17.70596215	    -16.19717721	    -15.68742409	      7.55717522	     -2.19413939
      1.54000000	      9.73716356	      3.94170757	     70.81926633	      1.18468667	      0.92312414	      0.55218017	    -15.02102207	      7.22565964	    -16.60454119	    -10.06190849	     15.30733453	      1.93874450	     23.26031207	     -5.46340934	    -11.31124355	    -35.09466570	     16.59346898	    -14.94466900	    -15.73001062	      7.64809423	     -1.93433055
      1.55000000	      9.75300610	      3.92434609	     71.06157058	      1.18840253	      0.92089038	      0.54367437	    -15.77367153	      7.39507317	    -16.81728378	     -9.85494916	     15.71440723	      2.09488785	     23.42094302	     -5.29984509	    -12.77573517	    -32.25613823	     15.39967157	    -13.77593415	    -15.74627416	      7.74756997	     -1.68020986
      1.56000000	      9.75957091	      3.89578120	     71.28643243	      1.19202438	      0.91852801	      0.53505033	    -16.48013415	      7.53744041	    -17.02541590	     -9.72334900	     16.15643100	      2.26596212	     23.55161666	     -5.10778517	    -14.26453442	    -29.53089227	     14.22017934	    -12.73584072	    -15.73803039	      7.84087381	     -1.44467012
      1.57000000	      9.77276998	      3.83575762	     71.49915588	      1.19551929	      0.91602784	      0.52632320	    -17.12052196	      7.67454346	    -17.21286331	     -9.67179312	     16.58136043	      2.45953914	     23.69661325	     -4.89676957	    -15.69063008	    -26.99578453	     13.11536681	    -11.75493581	    -15.69356365	      7.96192163	     -1.19253740
      1.58000000	      9.79925732	      3.75194509	     71.70438054	      1.19895958	      0.91342519	      0.51746465	    -17.71920555	      7.81873744	    -17.37650020	     -9.67513831	     16.95838125	      2.69552083	     23.86332159	     -4.68341525	    -17.01016306	    -24.72664997	     12.17614148	    -10.75600360	    -15.61475498	      8.09733794	     -0.94222006
      1.59000000	      9.83160094	      3.65435072	     71.89384983	      1.20234325	      0.91076377	      0.50844758	    -18.27434747	      7.94656540	    -17.53301772	     -9.76060917	     17.30465446	      2.97439343	     24.05416106	     -4.46962919	    -18.18702797	    -22.78759915	     11.49890195	     -9.80420016	    -15.51187307	      8.24032412	     -0.68095176
      1.60000000	      9.86387386	      3.56243760	     72.06956207	      1.20570987	      0.90810286	      0.49923240	    -18.80818863	      8.04748305	    -17.68170839	     -9.92340250	     17.63724084	      3.29537706	     24.25421985	     -4.26495409	    -19.20865787	    -21.23240074	     11.13894519	     -8.93577994	    -15.39588799	      8.37170995	     -0.43188621
      1.61000000	      9.89583038	      3.47469787	     72.22840226	      1.20910207	      0.90549995	      0.48980858	    -19.32562188	      8.12428838	    -17.78323381	    -10.15185086	     17.87547474	      3.69760987	     24.45994379	     -4.08889005	    -20.03563671	    -20.08659662	     11.03262384	     -8.11300862	    -15.26556177	      8.48450989	     -0.17681622
